HIERARCHY
ROOT Hips
{
	OFFSET 0.00000 0.00000 0.00000
	CHANNELS 6 Xposition Yposition Zposition Zrotation Yrotation Xrotation 
	JOINT LHipJoint
	{
		OFFSET 0 0 0
		CHANNELS 3 Zrotation Yrotation Xrotation
		JOINT LeftHip
		{
			OFFSET 1.56857 -1.73443 1.15205
			CHANNELS 3 Zrotation Yrotation Xrotation
			JOINT LeftKnee
			{
				OFFSET 2.39362 -6.57643 0.00000
				CHANNELS 3 Zrotation Yrotation Xrotation
				JOINT LeftAnkle
				{
					OFFSET 2.50952 -6.89485 0.00000
					CHANNELS 3 Zrotation Yrotation Xrotation
					JOINT LeftToe
					{
						OFFSET 0.17171 -0.47178 1.88682
						CHANNELS 3 Zrotation Yrotation Xrotation
						End Site
						{
							OFFSET 0.00000 -0.00000 0.98146
						}
					}
				}
			}
		}
	}
	JOINT RHipJoint
	{
		OFFSET 0 0 0
		CHANNELS 3 Zrotation Yrotation Xrotation
		JOINT RightHip
		{
			OFFSET -1.28153 -1.73443 1.15205
			CHANNELS 3 Zrotation Yrotation Xrotation
			JOINT RightKnee
			{
				OFFSET -2.26861 -6.23296 0.00000
				CHANNELS 3 Zrotation Yrotation Xrotation
				JOINT RightAnkle
				{
					OFFSET -2.54143 -6.98254 0.00000
					CHANNELS 3 Zrotation Yrotation Xrotation
					JOINT RightToe
					{
						OFFSET -0.23309 -0.64041 1.93119
						CHANNELS 3 Zrotation Yrotation Xrotation
						End Site
						{
							OFFSET -0.00000 -0.00000 1.02013
						}
					}
				}
			}
		}
	}
	JOINT lowerback
	{
		OFFSET 0 0 0
		CHANNELS 3 Zrotation Yrotation Xrotation
		JOINT Chest
		{
			OFFSET -0.07096 2.10460 -0.27878
			CHANNELS 3 Zrotation Yrotation Xrotation
			JOINT Chest2
			{
				OFFSET -0.00826 2.13662 -0.08279
				CHANNELS 3 Zrotation Yrotation Xrotation
				JOINT lowerneck
				{
					OFFSET 0 0 0
					CHANNELS 3 Zrotation Yrotation Xrotation
					JOINT Neck
					{
						OFFSET 0.03239 1.77799 0.24435
						CHANNELS 3 Zrotation Yrotation Xrotation
						JOINT Head
						{
							OFFSET 0.01026 1.74194 -0.49664
							CHANNELS 3 Zrotation Yrotation Xrotation
							End Site
							{
								OFFSET 0.00170 1.83057 -0.19653
							}
						}
					}
				}
				JOINT LeftCollar
				{
					OFFSET 0 0 0
					CHANNELS 3 Zrotation Yrotation Xrotation
					JOINT LeftShoulder
					{
						OFFSET 3.19178 1.35907 -0.31412
CHANNELS 3 Zrotation Xrotation Yrotation
						JOINT LeftElbow
						{
OFFSET 0 -4.852470 -0.000000
CHANNELS 3 Zrotation Xrotation Yrotation
							JOINT LeftWrist
							{
OFFSET 0 -3.555840 0.000000
CHANNELS 3 Zrotation Xrotation Yrotation
								JOINT lhand
								{
									OFFSET 0 0 0
CHANNELS 3 Zrotation Xrotation Yrotation
									JOINT LFingers
									{
OFFSET 0 -0.693200 0.000000
CHANNELS 3 Zrotation Xrotation Yrotation
										End Site
										{
OFFSET 0 -0.558880 0.000000
										}
									}
								}
								JOINT LThumb
								{
OFFSET 0 0.000000 0.000000
CHANNELS 3 Zrotation Xrotation Yrotation
									End Site
									{
OFFSET 0 -0.567410 0.567410
									}
								}
							}
						}
					}
				}
				JOINT RightCollar
				{
					OFFSET 0 0 0
					CHANNELS 3 Zrotation Yrotation Xrotation
					JOINT RightShoulder
					{
						OFFSET -3.28999 1.24191 -0.26899
CHANNELS 3 Zrotation Xrotation Yrotation
						JOINT RightElbow
						{
OFFSET 0 -4.644620 0.000000
CHANNELS 3 Zrotation Xrotation Yrotation
							JOINT RightWrist
							{
OFFSET 0 -3.407030 0.000000
CHANNELS 3 Zrotation Xrotation Yrotation
								JOINT rhand
								{
									OFFSET 0 0 0
CHANNELS 3 Zrotation Xrotation Yrotation
									JOINT RFingers
									{
OFFSET 0 -0.619580 0.000000
CHANNELS 3 Zrotation Xrotation Yrotation
										End Site
										{
OFFSET 0 -0.499520 0.000000
										}
									}
								}
								JOINT RThumb
								{
OFFSET 0 0.000000 0.000000
CHANNELS 3 Zrotation Xrotation Yrotation
									End Site
									{
OFFSET 0 -0.507150 0.507150
									}
								}
							}
						}
					}
				}
			}
		}
	}
}
MOTION
Frames: 4
Frame Time: 0.008333333333333333
48.000182 16.466550 -5.846128 -1.994642 178.575197 1.830432 0.000000 0.000000 0.000000 -9.101100 7.037200 -19.990700 6.516600 14.910900 47.021500 0.972000 0.440800 -18.799500 0.156400 2.548400 7.023800 0.000000 0.000000 0.000000 14.392240 -5.224806 0.048379 -7.051977 -15.372386 49.065201 -0.201984 5.143139 -8.237766 -0.001144 -0.198809 0.546182 -3.720218 3.216390 12.680592 -2.701265 4.658502 5.706593 -1.354474 2.663033 -1.138073 7.409396 8.320157 -17.414935 -4.303400 8.730057 37.189984 -1.768657 3.126779 17.056960 0.000000 0.000000 0.000000 13.098166 8.723837 -28.076498 26.815908 -37.995081 9.388726 12.228900 0.623404 23.392727 0.000000 0.000000 0.000000 -7.125000 0.000000 0.000000 -10.484738 6.434728 -9.408409 0.000000 0.000000 0.000000 -0.418120 6.547736 18.449032 -13.615705 -22.182570 -2.681299 -6.850089 17.852540 39.449510 0.000000 0.000000 0.000000 7.125000 0.000000 0.000000 37.426164 65.924079 -20.119305
48.019244 16.627248 -6.507226 -4.255667 183.668102 2.014981 0.000000 0.000000 0.000000 -9.101100 7.037200 -19.990700 6.516600 14.910900 47.021500 0.972000 0.440800 -18.799500 0.156400 2.548400 7.023800 0.000000 0.000000 0.000000 11.802111 -3.754984 -7.757358 -8.770873 -16.658016 55.294433 -0.385456 4.254019 -11.042246 -0.002726 -0.293469 0.806530 -5.529560 3.268674 12.783725 -2.607488 2.779363 6.065197 0.019161 0.952353 -0.940686 8.147089 9.512619 -17.310589 -5.602176 11.038625 36.393962 -1.954770 4.076893 16.989825 0.000000 0.000000 0.000000 16.816998 4.696027 -29.401104 35.067954 -44.859778 14.861473 16.669318 -6.587901 23.683669 0.000000 0.000000 0.000000 -7.125000 0.000000 0.000000 -7.751162 5.567828 -7.028676 0.000000 0.000000 0.000000 -2.915853 10.149499 21.355357 -14.207000 -23.029876 -2.908647 0.324672 15.435823 34.914303 0.000000 0.000000 0.000000 7.125000 0.000000 0.000000 38.755478 60.499405 -16.033243
48.031790 16.798200 -7.184623 -5.741505 189.014361 1.649855 0.000000 0.000000 0.000000 -9.101100 7.037200 -19.990700 6.516600 14.910900 47.021500 0.972000 0.440800 -18.799500 0.156400 2.548400 7.023800 0.000000 0.000000 0.000000 9.335671 -1.391650 -13.054871 -8.690622 -16.604167 55.013598 -0.817954 0.365815 -16.975131 -0.185079 -2.767207 7.631447 -7.301928 2.500372 13.224540 -1.924705 1.544578 6.377395 1.883845 0.285251 -0.852420 8.627896 10.265322 -16.896016 -6.430768 12.526268 35.732033 -2.069128 4.714638 16.821805 0.000000 0.000000 0.000000 19.749639 0.504095 -30.441960 44.617260 -50.573735 21.944410 19.610508 -11.117197 23.836571 0.000000 0.000000 0.000000 -7.125000 0.000000 0.000000 -5.943066 4.967031 -5.435682 0.000000 0.000000 0.000000 -5.674128 13.772459 24.990794 -15.216720 -24.446861 -3.315221 0.027494 11.956673 31.944696 0.000000 0.000000 0.000000 7.125000 0.000000 0.000000 35.451707 58.196919 -12.453358
48.066353 16.911365 -7.871448 -6.943125 194.548082 2.070711 0.000000 0.000000 0.000000 -9.101100 7.037200 -19.990700 6.516600 14.910900 47.021500 0.972000 0.440800 -18.799500 0.156400 2.548400 7.023800 0.000000 0.000000 0.000000 6.388967 2.837013 -16.428574 -6.957737 -15.293957 48.710439 -1.086946 -2.972723 -20.977210 -0.168937 -2.613377 7.206047 -8.367481 2.192120 13.321796 -1.540597 1.090296 6.060067 2.943735 0.096932 -1.214201 8.386916 10.123512 -16.943018 -5.480283 12.150752 35.838152 -1.679053 4.696663 16.724845 0.000000 0.000000 0.000000 22.444022 -4.301077 -32.422863 53.489277 -54.308121 28.985347 21.744000 -15.575920 25.022327 0.000000 0.000000 0.000000 -7.125000 0.000000 0.000000 -4.749376 3.377406 -4.476465 0.000000 0.000000 0.000000 -5.657169 17.277924 23.138163 -16.047510 -25.584945 -3.666513 -3.060265 10.127652 31.558606 0.000000 0.000000 0.000000 7.125000 0.000000 0.000000 32.114132 58.557054 -11.390541
